name ./resultDataOpenSim/trcMotMarkerGrf/sub06/grf-04-05.mot
datacolumns 19
datarows 20
range 1.58800000 1.66400000
endheader

                time	     ground_force_vx	     ground_force_vy	     ground_force_vz	     ground_force_px	     ground_force_py	     ground_force_pz	   l_ground_force_vx	   l_ground_force_vy	   l_ground_force_vz	   l_ground_force_px	   l_ground_force_py	   l_ground_force_pz	     ground_torque_x	     ground_torque_y	     ground_torque_z	   l_ground_torque_x	   l_ground_torque_y	   l_ground_torque_z	
          1.58800000	        123.50556392	        698.18966949	        -27.73192030	          0.87316943	          0.00000000	          0.09836024	          0.00000000	          0.00000000	          0.00000000	          0.00000000	          0.00000000	          0.00000000	          0.00000000	          2.73968477	          0.00000000	          0.00000000	          0.00000000	          0.00000000	
          1.59200000	        129.66166223	        709.45759774	        -27.97320181	          0.87335295	          0.00000000	          0.09831065	          0.00000000	          0.00000000	          0.00000000	          0.00000000	          0.00000000	          0.00000000	          0.00000000	          2.80585283	          0.00000000	          0.00000000	          0.00000000	          0.00000000	
          1.59600000	        135.91020125	        719.67249200	        -28.68551946	          0.87352336	          0.00000000	          0.09828157	          0.00000000	          0.00000000	          0.00000000	          0.00000000	          0.00000000	          0.00000000	          0.00000000	          2.87794029	          0.00000000	          0.00000000	          0.00000000	          0.00000000	
          1.60000000	        142.21476678	        728.84634304	        -29.87026470	          0.87367377	          0.00000000	          0.09826928	          0.00000000	          0.00000000	          0.00000000	          0.00000000	          0.00000000	          0.00000000	          0.00000000	          2.95504362	          0.00000000	          0.00000000	          0.00000000	          0.00000000	
          1.60400000	        148.51321564	        736.98674225	        -31.44374219	          0.87382019	          0.00000000	          0.09827405	          0.00000000	          0.00000000	          0.00000000	          0.00000000	          0.00000000	          0.00000000	          0.00000000	          3.03448061	          0.00000000	          0.00000000	          0.00000000	          0.00000000	
          1.60800000	        154.71999409	        744.09304628	        -33.25409943	          0.87398700	          0.00000000	          0.09829219	          0.00000000	          0.00000000	          0.00000000	          0.00000000	          0.00000000	          0.00000000	          0.00000000	          3.11290909	          0.00000000	          0.00000000	          0.00000000	          0.00000000	
          1.61200000	        160.73662877	        750.15653684	        -35.11034356	          0.87419654	          0.00000000	          0.09831741	          0.00000000	          0.00000000	          0.00000000	          0.00000000	          0.00000000	          0.00000000	          0.00000000	          3.18745398	          0.00000000	          0.00000000	          0.00000000	          0.00000000	
          1.61600000	        166.47347171	        755.15855493	        -36.81510602	          0.87446905	          0.00000000	          0.09834184	          0.00000000	          0.00000000	          0.00000000	          0.00000000	          0.00000000	          0.00000000	          0.00000000	          3.25629062	          0.00000000	          0.00000000	          0.00000000	          0.00000000	
          1.62000000	        171.88344893	        759.07578865	        -38.19531924	          0.87481045	          0.00000000	          0.09834962	          0.00000000	          0.00000000	          0.00000000	          0.00000000	          0.00000000	          0.00000000	          0.00000000	          3.31832782	          0.00000000	          0.00000000	          0.00000000	          0.00000000	
          1.62400000	        177.00581138	        761.87348961	        -39.12783926	          0.87521748	          0.00000000	          0.09832973	          0.00000000	          0.00000000	          0.00000000	          0.00000000	          0.00000000	          0.00000000	          0.00000000	          3.37212306	          0.00000000	          0.00000000	          0.00000000	          0.00000000	
          1.62800000	        181.99341274	        763.48334861	        -39.56201183	          0.87567104	          0.00000000	          0.09828197	          0.00000000	          0.00000000	          0.00000000	          0.00000000	          0.00000000	          0.00000000	          0.00000000	          3.41476441	          0.00000000	          0.00000000	          0.00000000	          0.00000000	
          1.63200000	        187.06607822	        763.79366572	        -39.53497443	          0.87612440	          0.00000000	          0.09820673	          0.00000000	          0.00000000	          0.00000000	          0.00000000	          0.00000000	          0.00000000	          0.00000000	          3.44182741	          0.00000000	          0.00000000	          0.00000000	          0.00000000	
          1.63600000	        192.38750911	        762.66342094	        -39.15888881	          0.87653950	          0.00000000	          0.09810778	          0.00000000	          0.00000000	          0.00000000	          0.00000000	          0.00000000	          0.00000000	          0.00000000	          3.44911141	          0.00000000	          0.00000000	          0.00000000	          0.00000000	
          1.64000000	        197.96805204	        759.95376148	        -38.57850561	          0.87691704	          0.00000000	          0.09799081	          0.00000000	          0.00000000	          0.00000000	          0.00000000	          0.00000000	          0.00000000	          0.00000000	          3.43549534	          0.00000000	          0.00000000	          0.00000000	          0.00000000	
          1.64400000	        203.66732622	        755.55367057	        -37.93216821	          0.87727572	          0.00000000	          0.09785536	          0.00000000	          0.00000000	          0.00000000	          0.00000000	          0.00000000	          0.00000000	          0.00000000	          3.40497493	          0.00000000	          0.00000000	          0.00000000	          0.00000000	
          1.64800000	        209.25374851	        749.37617169	        -37.33123312	          0.87762305	          0.00000000	          0.09769993	          0.00000000	          0.00000000	          0.00000000	          0.00000000	          0.00000000	          0.00000000	          0.00000000	          3.36609661	          0.00000000	          0.00000000	          0.00000000	          0.00000000	
          1.65200000	        214.46039212	        741.33904342	        -36.84340900	          0.87795990	          0.00000000	          0.09752924	          0.00000000	          0.00000000	          0.00000000	          0.00000000	          0.00000000	          0.00000000	          0.00000000	          3.32854482	          0.00000000	          0.00000000	          0.00000000	          0.00000000	
          1.65600000	        219.03464172	        731.36210678	        -36.48238983	          0.87829730	          0.00000000	          0.09735162	          0.00000000	          0.00000000	          0.00000000	          0.00000000	          0.00000000	          0.00000000	          0.00000000	          3.29841965	          0.00000000	          0.00000000	          0.00000000	          0.00000000	
          1.66000000	        222.79310965	        719.38132432	        -36.21437799	          0.87865296	          0.00000000	          0.09716977	          0.00000000	          0.00000000	          0.00000000	          0.00000000	          0.00000000	          0.00000000	          0.00000000	          3.27460800	          0.00000000	          0.00000000	          0.00000000	          0.00000000	
          1.66400000	        225.65734015	        705.34508535	        -35.96635964	          0.87903029	          0.00000000	          0.09697622	          0.00000000	          0.00000000	          0.00000000	          0.00000000	          0.00000000	          0.00000000	          0.00000000	          3.24803306	          0.00000000	          0.00000000	          0.00000000	          0.00000000	
